<svg width="39" height="28" viewBox="0 0 39 28" fill="none" xmlns="http://www.w3.org/2000/svg">
<rect x="0.952835" y="3.8" width="36.843" height="23.247" rx="4.14567" stroke="white" stroke-width="1.90567"/>
<rect x="8.11279" width="2.54089" height="6.35224" rx="1.27045" fill="white"/>
<rect x="28.5068" width="2.54089" height="6.35224" rx="1.27045" fill="white"/>
<rect x="17.1511" y="9.19971" width="3.17612" height="3.17612" rx="1.58806" transform="rotate(90 17.1511 9.19971)" fill="white"/>
<rect x="24.1384" y="9.19971" width="3.17612" height="3.17612" rx="1.58806" transform="rotate(90 24.1384 9.19971)" fill="white"/>
<rect x="31.126" y="9.19971" width="3.17612" height="3.17612" rx="1.58806" transform="rotate(90 31.126 9.19971)" fill="white"/>
<rect x="10.1636" y="14.2812" width="3.17612" height="3.17612" rx="1.58806" transform="rotate(90 10.1636 14.2812)" fill="white"/>
<rect x="17.1511" y="14.2812" width="3.17612" height="3.17612" rx="1.58806" transform="rotate(90 17.1511 14.2812)" fill="white"/>
<rect x="24.1384" y="14.2812" width="3.17612" height="3.17612" rx="1.58806" transform="rotate(90 24.1384 14.2812)" fill="white"/>
<rect x="31.126" y="14.2812" width="3.17612" height="3.17612" rx="1.58806" transform="rotate(90 31.126 14.2812)" fill="white"/>
<rect x="17.1511" y="19.3633" width="3.17612" height="3.17612" rx="1.58806" transform="rotate(90 17.1511 19.3633)" fill="white"/>
<rect x="24.1384" y="19.3633" width="3.17612" height="3.17612" rx="1.58806" transform="rotate(90 24.1384 19.3633)" fill="white"/>
<rect x="10.1636" y="19.3633" width="3.17612" height="3.17612" rx="1.58806" transform="rotate(90 10.1636 19.3633)" fill="white"/>
</svg>
